<svg xmlns="http://www.w3.org/2000/svg" viewBox="0 0 72 72">
  <path fill="#7b4639" d="m31.3386 69.5071c-5.6948-3.2841-12.1626-5.1814-20.1876-5.922-1.89-.1744-7.9972-.237-10.22-.1048l-.5379.0319-.039-23.5532c-.0214-12.9543.0131-23.6122.0768-23.6842.0637-.0721 1.2726-.1882 2.6863-.2581 1.9786-.0979 2.6244-.0751 2.8047.0987.2072.1998.2342 2.5004.2342 19.9824 0 15.1282.0432 19.8068.1844 19.9708.1014.1178.3725.2142.6023.2142.6181 0 4.1558.8394 5.7448 1.3631 7.4784 2.4646 13.6243 5.9225 18.7494 10.5491 1.8162 1.6396 2.8219 2.7122 2.5358 2.7045-.1268-.0029-1.3123-.63-2.6344-1.3924z"/>
  <path fill="#4d4c4c" d="m64.4262 2.4129c-.8924-.0224-4.8209 1.3115-7.7265 2.6473-7.3444 3.3762-12.5225 8.2576-15.0913 14.2268-.8636 2.0067-1.6763 5.1685-1.7226 6.7013-.4536 7.6063-.3174 31.769-.3167 43.3185 6.5025-9.3049 15.4542-15.1892 25.154-19.7522l.0387-23.5063c.035-21.0856.0145-23.5175-.199-23.6127-.0313-.0139-.0771-.0212-.1366-.0227z"/>
  <path fill="#d97e35" d="m8.2276 54.2001c-.0637-.1163-.1168-11.246-.1181-24.0858-.002-20.4547.0258-23.3578.2252-23.4467.682-.304 8.8888 2.4356 11.384 3.8003l.6062.3315.0391 20.1179.0391 20.1179 1.4978 1.3789c5.373 4.9466 10.1471 10.6069 12.4257 14.7322.7933 1.4363 1.4786 2.9771 1.4139 3.1793-7.882-10.527-17.1415-12.7881-27.5129-16.1254z"/>
  <path fill="#df983b" d="M22.8824 49.7076V24.5821c0-12.9459.0587-23.5802.1305-23.6318.1978-.142 1.6774 1.0291 3.1653 2.154 5.4835 4.1455 9.2759 10.3738 10.6888 17.5544.6996 3.5556.7008 3.602.7008 26.864 0 12.1257-.0519 21.5147-.1153 21.5113-4.5074-8.3922-8.3633-13.431-14.5702-19.3263z"/>
  <path fill="#7b4639" d="m41.2048 70.2143c0-.0952.2725-.6442.6057-1.2199 7.1793-9.7192 16.8679-13.4059 25.3813-17.6125.0644-.1176.1181-8.3579.1194-18.3117l.0023-18.0979 1.9285.0863c1.0607.0474 1.9946.163 2.0753.2569.0922.1071.1323 8.4062.1078 22.2957l-.039 22.1251-1.1526-.0892c-9.4747-.4145-22.1737 3.0057-27.4919 9.1898-.5543.6998-1.5368 1.5804-1.5368 1.3774z"/>
  <path fill="#FEBA2A" fill-rule="nonzero" d="m57.4521 34.4437c-.803 2.6322-2.0438 5.3797-3.5248 8.1582l.0017.0391c.7379.154 1.4536.4598 2.1635.6027 1.8436.2837 2.8313.5883 4.4981 1.4184.1657.0962.2176.3443.1112.6521-.1419.4103-.5277.7738-.848.8151-1.2659.2056-3.0579.2217-3.7823.0964-.256-.0157-.5125-.0622-.7298-.1018-.162-.0183-.365-.0509-.527-.0692-.7206-.1357-1.2957-.3074-1.8731-.4245-.203-.0326-.4469-.0795-.6535-.19-.0373.0636-.1119.1909-.1492.2545-.1119.1909-.2238.3817-.3375.5336-.1119.1908-.2238.3817-.3748.5972-.1492.2545-.2611.4453-.4494.7245l-2.2226 3.2859c-.9481 1.3564-2.1973 2.6719-3.2045 3.8243-.2275.3038-.5423.462-.7471.3905-.2849-.0612-.3032-.4509-.0812-.8715l1.1863-2.1917c.0391-.0246.0373-.0636.0764-.0883l.7888-1.2191c.1493-.3013.4107-.6179.5632-.8765.1137-.1519.2648-.3674.3394-.4946.0373-.0636.1137-.1519.1492-.2545.0746-.1272.1492-.2545.2629-.4064.3394-.4946 1.2009-1.88 1.8741-2.9861.1865-.3181.4121-.6608.5222-.8907l-.7837-.3888-.041-.0143c-.3723-.2067-.7464-.4524-1.1205-.6981-.335-.2703-.6718-.5797-1.0086-.889-.8503-.9486-1.5831-1.9712-2.0849-3.2197-.5036-1.2874-.7742-2.7617-.7801-4.6034.0241-2.0612.3704-4.1248.996-6.244.6257-2.1193 1.5307-4.2942 2.6332-6.5535.1474-.2934.8488-1.6581 1.4437-2.7149.3357-.5726.6323-1.1205.8597-1.4243.1902-.2402.3858-.3634.6242-.4334.2794-.0557.4041.0262.5679.0835.1178.0314.2335.0767.3277.1145.2048.0716.4096.1431.6144.2147 1.1505.4786 2.0662 1.1052 2.8664 1.8447.7629.8031 1.4102 1.7192 1.9884 2.8793.2249.5002.4125 1.064.561 1.6524.1485.5884.2988 1.2159.369 1.8536.2436 2.6146-.1516 5.351-1.0647 8.213zM51.1666 21.5545l-.0391.0246c-.1101.2298-.2201.4596-.3302.6895-1.1007 2.2982-1.933 4.307-2.4877 6.2211-.5156 1.8894-.7909 3.7479-.7386 5.7208.0231 1.3495.3647 2.6186.8982 3.6865.5819 1.2381 1.3966 2.2893 2.316 2.9938.452.3504.8832.6183 1.3308.8866.3424-.792.8007-1.5867 1.1362-2.4008.5112-1.1244.9387-2.3165 1.327-3.4839.3883-1.1674.6593-2.2608.8538-3.266.4172-2.2688.3203-4.3339-.1625-6.0356-.5274-1.794-1.4815-3.2388-2.775-4.189z"/>
</svg>
