<svg xmlns="http://www.w3.org/2000/svg" viewBox="0 0 100 100">
  <path fill="#000000" d="m94.1 5c-29.6 0-59.2 0-88.7 0-3.8 0.3-5.8 4.2-5.3 7.7 0 18.9 0 37.9 0 56.8 0.3 3.8 4.3 5.7 7.7 5.2 9 0 17.9 0 26.8 0 0 4.8 0 9.7 0 14.5-5.5 0-10.9-0.1-16.4 0.1-4 0.9-2.1 6.9 1.7 5.8 20.6 0 41.3 0.1 61.9-0.1 4-0.8 2.1-6.9-1.7-5.8-4.9 0-9.8 0-14.7 0 0-4.8 0-9.7 0-14.5 10-0.1 19.9 0.1 29.9-0.1 3.6-0.6 4.7-4.4 4.6-7.6 0-18.9 0-37.9 0-56.8C99.7 7.3 97 4.9 94.1 5ZM59.6 89.2c-6.4 0-12.7 0-19.1 0 0-4.8 0-9.7 0-14.5 6.4 0 12.7 0 19.1 0 0 4.8 0 9.7 0 14.5zM94.1 68.9c-29.4 0-58.8 0-88.1 0 0-19.4 0-38.7 0-58.1 29.4 0 58.8 0 88.2 0 0 19.4 0 38.7 0 58.1z"/>
</svg>
