<svg xmlns="http://www.w3.org/2000/svg" viewBox="0 0 1000 1000">
  <path fill="#000000" d="M 58 934 v 68 h 68 v -68 z m 136 0 v 68 h 68 v -68 z m 136 0 v 68 h 68 v -68 z m 136 0 v 68 h 68 v -68 z m 136 0 v 68 h 68 v -68 z m 136 0 v 68 h 68 v -68 z m 136 0 v 68 h 68 v -68 z M 62 643 C 44 548 37 449 43 396 C 52 326 48 303 27 293 C -4 279 -9 199 17 149 c 12 -22 17 -24 18 -5 c 0 15 10 27 23 27 c 35 1 61 28 74 79 c 9 36 3 50 -24 61 c -30 12 -37 32 -37 122 c 0 59 13 144 28 188 l 28 81 l 25 -54 c 14 -30 42 -116 63 -191 c 36 -130 37 -139 7 -178 c -21 -28 -27 -59 -19 -97 c 10 -51 14 -53 39 -23 c 15 18 39 33 52 33 c 28 0 58 92 34 102 c -39 17 -55 48 -93 191 c -23 84 -45 164 -50 179 c -6 19 12 27 61 27 c 69 0 72 -3 156 -177 L 488 338 L 440 296 c -50 -44 -57 -73 -32 -121 c 18 -35 102 5 118 56 c 6 18 -21 112 -60 209 c -39 97 -80 217 -91 268 L 356 800 H 224 H 92 Z M 633 740 C 632 707 625 651 618 614 C 607 560 613 535 652 478 L 700 409 L 654 342 c -48 -69 -54 -99 -35 -159 c 12 -39 43 -47 43 -11 c 0 26 177 280 195 280 c 6 0 21 -31 33 -69 c 19 -61 17 -72 -14 -99 c -34 -29 -47 -93 -25 -120 c 6 -7 28 -2 49 11 c 21 13 50 31 65 39 c 42 24 44 88 4 101 c -37 12 -75 92 -75 157 c 0 22 24 76 54 121 c 55 84 65 130 38 180 C 974 796 964 790 943 751 C 901 674 731 453 714 453 c -9 0 -24 20 -35 45 c -16 36 -12 60 17 121 c 20 42 37 100 37 129 c 0 43 -9 53 -49 53 c -41 0 -49 -10 -51 -60 z M 437 60 c -16 -31 19 -72 44 -54 c 28 21 24 77 -6 77 c -14 0 -31 -11 -38 -24 z"/>
</svg>
